<svg id="Fundamental" xmlns="http://www.w3.org/2000/svg" viewBox="0 0 16.39 16.39" height="18"><defs><style>.cls-1{fill:#fbca55;stroke:#8b9296;stroke-miterlimit:10;}</style></defs><path class="cls-1" d="M15.89,9.16V7.23l-1.81-.65-.59-1.41.83-1.73L13,2.07l-1.74.82L9.8,2.31,9.16.5H7.23L6.58,2.31l-1.41.58L3.44,2.07,2.07,3.44l.82,1.73L2.31,6.58.5,7.23V9.16l1.81.64.58,1.41L2.07,13l1.37,1.37,1.73-.83,1.41.59.65,1.81H9.16l.64-1.81,1.41-.59,1.74.83L14.32,13l-.83-1.74.59-1.41Zm-7.7,2.25a3.22,3.22,0,1,1,3.22-3.22A3.22,3.22,0,0,1,8.19,11.41Z"/></svg>