<svg id="Library" xmlns="http://www.w3.org/2000/svg" viewBox="0 0 15.89 16.26" height="20"><defs><style>.cls-1{fill:#f091a2;}.cls-1,.cls-2,.cls-3,.cls-4{stroke:#8b9296;}.cls-1,.cls-2,.cls-3{stroke-linecap:round;stroke-linejoin:round;}.cls-2{fill:#50a87f;}.cls-3{fill:#4aa2db;}.cls-4{fill:#fbca55;stroke-miterlimit:10;}</style></defs><polygon class="cls-1" points="4.26 0.5 0.5 7.01 8.02 7.01 4.26 0.5"/><rect class="cls-2" x="1.33" y="7.01" width="12.34" height="5.37"/><polygon class="cls-3" points="13.6 0.82 10.03 0.82 8.24 3.92 10.03 7.01 13.6 7.01 15.39 3.92 13.6 0.82"/><path class="cls-4" d="M7.25,12.81V12l-.8-.28-.25-.62.36-.76L6,9.7l-.76.36L4.58,9.8,4.3,9H3.45l-.28.79-.62.26L1.79,9.7l-.6.6.36.76-.26.62L.5,12v.85l.79.28.26.62-.36.76.6.6.76-.36.62.25.28.8H4.3l.28-.8.62-.25.76.36.6-.6-.36-.76.25-.62Zm-3.38,1a1.41,1.41,0,1,1,1.42-1.41A1.41,1.41,0,0,1,3.87,13.79Z"/><path class="cls-4" d="M15.39,12.81V12l-.79-.28-.26-.62.36-.76-.6-.6-.76.36-.62-.26L12.44,9h-.85l-.28.79-.62.26L9.93,9.7l-.6.6.36.76-.25.62-.8.28v.85l.8.28.25.62-.36.76.6.6.76-.36.62.25.28.8h.85l.28-.8.62-.25.76.36.6-.6-.36-.76.26-.62Zm-3.37,1a1.41,1.41,0,1,1,1.41-1.41A1.42,1.42,0,0,1,12,13.79Z"/></svg>