<svg xmlns="http://www.w3.org/2000/svg" viewBox="0 0 463.86 220.32"><defs><style>.cls-1{fill:#f091a2;}.cls-1,.cls-2,.cls-3,.cls-4{stroke:#8b9296;stroke-linecap:round;stroke-linejoin:round;stroke-width:5px;}.cls-2{fill:#50a87f;}.cls-3{fill:#4aa2db;}.cls-4{fill:none;}.cls-5{fill:#8b9296;}.cls-6{font-size:20px;}.cls-6,.cls-7{fill:#0e3262;font-family:DengXian-Bold, DengXian;font-weight:700;}.cls-7{font-size:19px;}</style></defs><g id="Structure"><polygon class="cls-1" points="87.73 51.71 2.5 2.5 2.5 100.91 87.73 51.71"/><rect class="cls-2" x="148.27" y="18" width="154.9" height="67.41"/><polygon class="cls-3" points="436.36 8.4 386.36 8.4 361.36 51.71 386.36 95.01 436.36 95.01 461.36 51.71 436.36 8.4"/><line class="cls-4" x1="90.08" y1="51.71" x2="142.56" y2="51.71"/><polygon class="cls-5" points="132.6 60.18 141.08 51.71 132.6 43.23 139.8 43.23 148.27 51.71 139.8 60.18 132.6 60.18"/><line class="cls-4" x1="303.17" y1="51.71" x2="355.64" y2="51.71"/><polygon class="cls-5" points="345.69 60.18 354.17 51.71 345.69 43.23 352.88 43.23 361.36 51.71 352.88 60.18 345.69 60.18"/><text class="cls-6" transform="translate(8.9 56.39)">发射机</text><text class="cls-6" transform="translate(207.43 56.39)">信道</text><text class="cls-6" transform="translate(382.28 56.39)">接收机</text></g><g id="Module"><line class="cls-4" x1="37.64" y1="80.62" x2="37.64" y2="204.5"/><line class="cls-4" x1="37.64" y1="128.52" x2="64.92" y2="128.52"/><text class="cls-6" transform="translate(71.31 133.54)">调制</text><line class="cls-4" x1="37.64" y1="158.21" x2="64.92" y2="158.21"/><text class="cls-6" transform="translate(71.31 163.23)">编码</text><line class="cls-4" x1="38.44" y1="186.77" x2="65.72" y2="186.77"/><text class="cls-6" transform="translate(72.11 191.78)">组帧</text><text class="cls-7" transform="translate(71.92 215.85)">······</text><line class="cls-4" x1="197.59" y1="85.41" x2="197.59" y2="205.24"/><line class="cls-4" x1="197.59" y1="128.52" x2="224.87" y2="128.52"/><text class="cls-6" transform="translate(231.26 133.54)">噪声</text><line class="cls-4" x1="197.59" y1="158.21" x2="224.87" y2="158.21"/><text class="cls-6" transform="translate(231.26 163.23)">多径</text><line class="cls-4" x1="198.39" y1="186.77" x2="225.67" y2="186.77"/><text class="cls-6" transform="translate(232.06 191.78)">延迟</text><text class="cls-7" transform="translate(231.87 215.85)">······</text><line class="cls-4" x1="386.85" y1="95.01" x2="386.85" y2="205.24"/><line class="cls-4" x1="386.85" y1="128.52" x2="414.14" y2="128.52"/><text class="cls-6" transform="translate(420.52 133.54)">均衡</text><line class="cls-4" x1="386.85" y1="158.21" x2="414.14" y2="158.21"/><text class="cls-6" transform="translate(420.52 163.23)">解调</text><line class="cls-4" x1="387.65" y1="186.77" x2="414.94" y2="186.77"/><text class="cls-6" transform="translate(421.32 191.78)">解码</text><text class="cls-7" transform="translate(421.13 215.85)">······</text></g></svg>