<svg id="Tool" xmlns="http://www.w3.org/2000/svg" viewBox="0 0 16.39 16.39" height="18"><defs><style>.cls-1{fill:#555657;}.cls-2{fill:#8b9296;}</style></defs><path class="cls-1" d="M13.71,15.89a2.16,2.16,0,0,1-1.54-.63L6.1,9.19a4.66,4.66,0,0,1-1.18.16A4.42,4.42,0,0,1,.5,4.89a.5.5,0,0,1,.31-.46.43.43,0,0,1,.19,0,.47.47,0,0,1,.35.15L3,6.22l2.51-.67L6.22,3,4.54,1.35A.47.47,0,0,1,4.43.81.49.49,0,0,1,4.89.5,4.38,4.38,0,0,1,8.05,1.8,4.42,4.42,0,0,1,9.19,6.1l6.07,6.07a2.16,2.16,0,0,1,.63,1.54,2.15,2.15,0,0,1-2.18,2.18Zm.12-2.6a.38.38,0,0,0-.29.12.41.41,0,0,0,0,.59.41.41,0,0,0,.58,0,.41.41,0,0,0,.13-.29.43.43,0,0,0-.13-.3A.38.38,0,0,0,13.83,13.29Z"/><path class="cls-2" d="M4.92,1A3.92,3.92,0,0,1,8.61,6.26l.22.19,6.07,6.07a1.68,1.68,0,0,1,0,2.38h0a1.69,1.69,0,0,1-2.38,0L6.45,8.83a2,2,0,0,1-.19-.22,3.83,3.83,0,0,1-1.34.24A3.93,3.93,0,0,1,1,4.89L2.89,6.78,6,6l.82-3.07L4.89,1h0m8.91,13.62a1,1,0,0,0,.65-.26.92.92,0,1,0-1.3,0,1,1,0,0,0,.65.26M4.92,0h0A1,1,0,0,0,4,.62a1,1,0,0,0,.21,1.09L5.66,3.19,5.14,5.14l-1.95.52L1.71,4.18A1,1,0,0,0,1,3.89,1,1,0,0,0,.62,4,1,1,0,0,0,0,4.88,4.91,4.91,0,0,0,5.94,9.74l5.87,5.87a2.69,2.69,0,1,0,3.8-3.8L9.74,5.94A4.92,4.92,0,0,0,8.4,1.44,4.86,4.86,0,0,0,4.92,0Z"/></svg>